/* XPM */
static const char * const editor_xpm[] = {
"12 14 2 1",
"  c None",
". c #000000",
"            ",
"            ",
"  ........  ",
" .......... ",
"  ........  ",
"            ",
"  ........  ",
" .......... ",
"  ........  ",
"            ",
"  ........  ",
" .......... ",
"  ........  ",
"            "};

