/* XPM */
static const char * const move_down_xpm[] = {
"12 14 2 1",
" 	c None",
".	c #000000",
"            ",
"            ",
"     ...    ",
"     ...    ",
"     ...    ",
"     ...    ",
"     ...    ",
"     ...    ",
"  ......... ",
"   .......  ",
"    .....   ",
"     ...    ",
"      .     ",
"            "};
