/* XPM */
static const char * const power_on_xpm[] = {
"12 14 2 1",
" 	c None",
".	c #000000",
"            ",
"            ",
"         .. ",
"        ... ",
"       ...  ",
"      ...   ",
"     ...    ",
"    ...     ",
"   ...      ",
"  ...       ",
" ...        ",
" ..         ",
"            ",
"            "};
