/* XPM */
static const char * const pre_fade_xpm[] = {
"12 14 2 1",
" 	c None",
".	c #000000",
"            ",
"            ",
"        ... ",
"        ... ",
"    .   ... ",
"    ..  ... ",
" ...... ... ",
" .......... ",
" ...... ... ",
"    ..  ... ",
"    .   ... ",
"        ... ",
"        ... ",
"            "};
static const char * const pre_fade_xpmo[] = {
"12 14 2 1",
" 	c None",
".	c #000000",
"            ",
"            ",
"            ",
"            ",
"    .       ",
"   ..       ",
"  ......... ",
" .......... ",
"  ......... ",
"   ..       ",
"    .       ",
"            ",
"            ",
"            "};
